<svg width="20" height="20" viewBox="0 0 20 20" fill="none" xmlns="http://www.w3.org/2000/svg">
<path d="M14.7858 9.26961C14.6996 9.22832 14.6121 9.18858 14.5235 9.15053C14.3691 6.30606 12.8148 4.6776 10.205 4.66094C10.1932 4.66086 10.1814 4.66086 10.1696 4.66086C8.60861 4.66086 7.31035 5.32718 6.51128 6.53966L7.94659 7.52425C8.54353 6.61857 9.48036 6.4255 10.1703 6.4255C10.1783 6.4255 10.1863 6.4255 10.1942 6.42557C11.0535 6.43105 11.7019 6.6809 12.1216 7.16813C12.427 7.52284 12.6313 8.01302 12.7324 8.63165C11.9705 8.50216 11.1466 8.46234 10.2658 8.51284C7.78447 8.65577 6.18931 10.1029 6.29644 12.1137C6.35081 13.1337 6.85895 14.0112 7.72721 14.5845C8.46132 15.0691 9.4068 15.306 10.3894 15.2524C11.6871 15.1812 12.7051 14.6861 13.4153 13.7808C13.9547 13.0933 14.2959 12.2024 14.4465 11.0798C15.0649 11.453 15.5233 11.9442 15.7764 12.5346C16.2068 13.5382 16.2319 15.1875 14.8862 16.5321C13.7071 17.71 12.2898 18.2196 10.1479 18.2353C7.77192 18.2177 5.97501 17.4557 4.8067 15.9705C3.71268 14.5798 3.14729 12.571 3.12619 10C3.14729 7.42894 3.71268 5.42017 4.8067 4.02945C5.97501 2.54426 7.77189 1.78229 10.1479 1.76464C12.5411 1.78243 14.3693 2.54806 15.5823 4.04042C16.1771 4.77225 16.6255 5.69258 16.9212 6.76566L18.6032 6.3169C18.2448 4.99606 17.681 3.85789 16.9137 2.91396C15.3586 1.0007 13.0842 0.0203279 10.1537 0H10.142C7.21748 0.0202573 4.96858 1.00435 3.45777 2.92493C2.11335 4.634 1.41986 7.01205 1.39656 9.99297L1.39648 10L1.39656 10.007C1.41986 12.9879 2.11335 15.366 3.45777 17.0751C4.96858 18.9956 7.21748 19.9798 10.142 20H10.1537C12.7538 19.982 14.5865 19.3013 16.0963 17.7928C18.0716 15.8194 18.0121 13.3457 17.3611 11.8272C16.894 10.7382 16.0035 9.85377 14.7858 9.26961ZM10.2965 13.4903C9.20904 13.5516 8.07923 13.0634 8.02353 12.0179C7.98223 11.2427 8.57521 10.3777 10.3633 10.2747C10.568 10.2629 10.769 10.2571 10.9664 10.2571C11.6159 10.2571 12.2235 10.3202 12.7759 10.4409C12.5698 13.0141 11.3613 13.4319 10.2965 13.4903Z" fill="black"/>
</svg>
