<svg width="37" height="36" viewBox="0 0 37 36" fill="none" xmlns="http://www.w3.org/2000/svg">
<path opacity="0.12" d="M33.1289 13.5V11.7C33.1289 9.17976 33.1289 7.91965 32.6384 6.95704C32.207 6.11031 31.5186 5.4219 30.6719 4.99047C29.7093 4.5 28.4491 4.5 25.9289 4.5L10.3289 4.5C7.80867 4.5 6.54855 4.5 5.58595 4.99047C4.73922 5.4219 4.05081 6.11031 3.61938 6.95704C3.12891 7.91965 3.12891 9.17976 3.12891 11.7L3.12891 13.5L33.1289 13.5Z" fill="#3E4784"/>
<path d="M33.1289 13.5H3.12891M21.1289 26.25L24.8789 22.5L21.1289 18.75M15.1289 18.75L11.3789 22.5L15.1289 26.25M3.12891 11.7L3.12891 24.3C3.12891 26.8202 3.12891 28.0804 3.61938 29.043C4.05081 29.8897 4.73922 30.5781 5.58595 31.0095C6.54855 31.5 7.80867 31.5 10.3289 31.5H25.9289C28.4491 31.5 29.7093 31.5 30.6719 31.0095C31.5186 30.5781 32.207 29.8897 32.6384 29.043C33.1289 28.0804 33.1289 26.8202 33.1289 24.3V11.7C33.1289 9.17977 33.1289 7.91965 32.6384 6.95704C32.207 6.11032 31.5186 5.4219 30.6719 4.99047C29.7093 4.5 28.4491 4.5 25.9289 4.5L10.3289 4.5C7.80867 4.5 6.54855 4.5 5.58595 4.99047C4.73922 5.4219 4.05081 6.11031 3.61938 6.95704C3.12891 7.91965 3.12891 9.17976 3.12891 11.7Z" stroke="#3E4784" stroke-width="2" stroke-linecap="round" stroke-linejoin="round"/>
</svg>
