<svg width="36" height="37" viewBox="0 0 36 37" fill="none" xmlns="http://www.w3.org/2000/svg">
<g clip-path="url(#clip0_691_11584)">
<path d="M33.3425 0.0341797H2.6575C1.95269 0.0341797 1.27674 0.314166 0.778364 0.812544C0.279986 1.31092 0 1.98687 0 2.69168V33.3767C0 34.0815 0.279986 34.7574 0.778364 35.2558C1.27674 35.7542 1.95269 36.0342 2.6575 36.0342H33.3425C34.0473 36.0342 34.7233 35.7542 35.2216 35.2558C35.72 34.7574 36 34.0815 36 33.3767V2.69168C36 1.98687 35.72 1.31092 35.2216 0.812544C34.7233 0.314166 34.0473 0.0341797 33.3425 0.0341797ZM10.73 30.7017H5.3175V13.5092H10.73V30.7017ZM8.02 11.1267C7.40605 11.1232 6.80687 10.938 6.2981 10.5943C5.78933 10.2506 5.39376 9.76398 5.16132 9.19571C4.92887 8.62745 4.86997 8.00307 4.99205 7.40136C5.11412 6.79966 5.4117 6.24759 5.84723 5.81485C6.28276 5.38211 6.83672 5.08808 7.4392 4.96987C8.04168 4.85166 8.66567 4.91457 9.23243 5.15066C9.79919 5.38675 10.2833 5.78543 10.6237 6.2964C10.9641 6.80737 11.1455 7.40772 11.145 8.02168C11.1508 8.43273 11.0738 8.84074 10.9185 9.22139C10.7633 9.60203 10.533 9.94753 10.2414 10.2373C9.94974 10.527 9.60277 10.7551 9.22114 10.9079C8.8395 11.0607 8.431 11.1351 8.02 11.1267ZM30.68 30.7167H25.27V21.3242C25.27 18.5542 24.0925 17.6992 22.5725 17.6992C20.9675 17.6992 19.3925 18.9092 19.3925 21.3942V30.7167H13.98V13.5217H19.185V15.9042H19.255C19.7775 14.8467 21.6075 13.0392 24.4 13.0392C27.42 13.0392 30.6825 14.8317 30.6825 20.0817L30.68 30.7167Z" fill="#0A66C2"/>
</g>
<defs>
<clipPath id="clip0_691_11584">
<rect width="36" height="36" fill="white" transform="translate(0 0.0341797)"/>
</clipPath>
</defs>
</svg>
