<svg width="37" height="36" viewBox="0 0 37 36" fill="none" xmlns="http://www.w3.org/2000/svg">
<path opacity="0.12" d="M13.6289 4.5H11.8289C9.30867 4.5 8.04855 4.5 7.08595 4.99047C6.23922 5.4219 5.55081 6.11031 5.11938 6.95704C4.62891 7.91965 4.62891 9.17976 4.62891 11.7V24.3C4.62891 26.8202 4.62891 28.0804 5.11938 29.043C5.55081 29.8897 6.23922 30.5781 7.08595 31.0095C8.04855 31.5 9.30867 31.5 11.8289 31.5H13.6289V4.5Z" fill="#CA8504"/>
<path d="M26.3789 16.5H18.8789M26.3789 22.5H18.8789M26.3789 10.5H18.8789M13.6289 4.5L13.6289 31.5M11.8289 4.5H24.4289C26.9491 4.5 28.2093 4.5 29.1719 4.99047C30.0186 5.4219 30.707 6.11031 31.1384 6.95704C31.6289 7.91965 31.6289 9.17976 31.6289 11.7V24.3C31.6289 26.8202 31.6289 28.0804 31.1384 29.043C30.707 29.8897 30.0186 30.5781 29.1719 31.0095C28.2093 31.5 26.9491 31.5 24.4289 31.5H11.8289C9.30867 31.5 8.04855 31.5 7.08595 31.0095C6.23922 30.5781 5.55081 29.8897 5.11938 29.043C4.62891 28.0804 4.62891 26.8202 4.62891 24.3V11.7C4.62891 9.17976 4.62891 7.91965 5.11938 6.95704C5.55081 6.11031 6.23922 5.4219 7.08595 4.99047C8.04855 4.5 9.30867 4.5 11.8289 4.5Z" stroke="#CA8504" stroke-width="2" stroke-linecap="round" stroke-linejoin="round"/>
</svg>
