<svg width="36" height="37" viewBox="0 0 36 37" fill="none" xmlns="http://www.w3.org/2000/svg">
<g clip-path="url(#clip0_691_11578)">
<path d="M35.6484 18.7594C35.6484 17.5358 35.5492 16.3056 35.3375 15.1018H18.3594V22.0333H28.082C27.6785 24.2688 26.3822 26.2464 24.484 27.5031V32.0006H30.2844C33.6907 28.8656 35.6484 24.2358 35.6484 18.7594Z" fill="#4285F4"/>
<path d="M18.3606 36.346C23.2153 36.346 27.3094 34.752 30.2923 32.0006L24.4918 27.503C22.878 28.601 20.7946 29.2227 18.3673 29.2227C13.6713 29.2227 9.68969 26.0546 8.26106 21.7952H2.27539V26.4316C5.33106 32.5098 11.5548 36.346 18.3606 36.346V36.346Z" fill="#34A853"/>
<path d="M8.25318 21.7951C7.49919 19.5596 7.49919 17.1389 8.25318 14.9034V10.2669H2.27413C-0.278876 15.3531 -0.278876 21.3454 2.27413 26.4315L8.25318 21.7951V21.7951Z" fill="#FBBC04"/>
<path d="M18.3606 7.46922C20.9269 7.42953 23.4071 8.39518 25.2657 10.1677L30.4047 5.02865C27.1506 1.97298 22.8317 0.293028 18.3606 0.34594C11.5548 0.34594 5.33106 4.18206 2.27539 10.2669L8.25445 14.9034C9.67646 10.6373 13.6647 7.46922 18.3606 7.46922V7.46922Z" fill="#EA4335"/>
</g>
<defs>
<clipPath id="clip0_691_11578">
<rect width="36" height="36" fill="white" transform="translate(0 0.344727)"/>
</clipPath>
</defs>
</svg>
