<svg width="37" height="36" viewBox="0 0 37 36" fill="none" xmlns="http://www.w3.org/2000/svg">
<g opacity="0.12">
<path d="M27.8789 20.25C30.7784 20.25 33.1289 17.8995 33.1289 15C33.1289 12.1005 30.7784 9.75 27.8789 9.75V20.25Z" fill="#E62E05"/>
<path d="M15.1289 8.25H9.87891C6.15098 8.25 3.1289 11.2721 3.12891 15C3.12891 18.7279 6.15098 21.75 9.8789 21.75H15.1289L15.1289 8.25Z" fill="#E62E05"/>
</g>
<path d="M6.12891 21L8.49088 30.4479C8.5573 30.7136 8.59052 30.8464 8.62981 30.9624C9.01366 32.0957 10.0342 32.8925 11.2267 32.99C11.3488 33 11.4857 33 11.7596 33C12.1026 33 12.2741 33 12.4185 32.986C13.8464 32.8475 14.9764 31.7175 15.1149 30.2896C15.1289 30.1451 15.1289 29.9737 15.1289 29.6307V8.25M27.8789 20.25C30.7784 20.25 33.1289 17.8995 33.1289 15C33.1289 12.1005 30.7784 9.75 27.8789 9.75M15.5039 8.25H9.87891C6.15098 8.25 3.1289 11.2721 3.12891 15C3.12891 18.7279 6.15099 21.75 9.87891 21.75H15.5039C18.1536 21.75 21.3948 23.1703 23.8954 24.5335C25.3541 25.3287 26.0835 25.7263 26.5613 25.6678C27.0043 25.6135 27.3392 25.4146 27.5989 25.0517C27.8789 24.6602 27.8789 23.877 27.8789 22.3106V7.68943C27.8789 6.12299 27.8789 5.33978 27.5989 4.94833C27.3392 4.58535 27.0043 4.38645 26.5613 4.33219C26.0835 4.27368 25.3541 4.6713 23.8954 5.46653C21.3948 6.82967 18.1535 8.25 15.5039 8.25Z" stroke="#E62E05" stroke-width="2" stroke-linecap="round" stroke-linejoin="round"/>
</svg>
