<svg width="36" height="37" viewBox="0 0 36 37" fill="none" xmlns="http://www.w3.org/2000/svg">
<g clip-path="url(#clip0_691_11587)">
<path d="M18 36.3789C27.9411 36.3789 36 28.32 36 18.3789C36 8.43778 27.9411 0.378906 18 0.378906C8.05887 0.378906 0 8.43778 0 18.3789C0 28.32 8.05887 36.3789 18 36.3789Z" fill="white"/>
<path d="M18 0.378906C8.05926 0.378906 0 8.43817 0 18.3789C0 26.0085 4.74074 32.5271 11.437 35.1493C11.2741 33.7271 11.1407 31.5345 11.4963 29.9789C11.8222 28.5715 13.6 21.0308 13.6 21.0308C13.6 21.0308 13.0667 19.9493 13.0667 18.3641C13.0667 15.8604 14.5185 13.9937 16.3259 13.9937C17.8667 13.9937 18.6074 15.1493 18.6074 16.5271C18.6074 18.0678 17.6296 20.3789 17.1111 22.5271C16.6815 24.3196 18.0148 25.7863 19.7778 25.7863C22.9778 25.7863 25.437 22.4085 25.437 17.5493C25.437 13.2382 22.3407 10.2308 17.9111 10.2308C12.7852 10.2308 9.77778 14.0678 9.77778 18.0382C9.77778 19.5789 10.3704 21.2382 11.1111 22.1419C11.2593 22.3196 11.2741 22.4826 11.2296 22.6604C11.0963 23.2233 10.7852 24.453 10.7259 24.7048C10.6519 25.0308 10.4593 25.1048 10.1185 24.9419C7.86667 23.89 6.45926 20.6159 6.45926 17.9641C6.45926 12.29 10.5778 7.0752 18.3556 7.0752C24.5926 7.0752 29.4519 11.5196 29.4519 17.4752C29.4519 23.6826 25.5407 28.6752 20.1185 28.6752C18.2963 28.6752 16.5778 27.7271 16 26.6011C16 26.6011 15.0963 30.0382 14.8741 30.8826C14.4741 32.453 13.3778 34.4085 12.637 35.6085C14.3259 36.1271 16.1037 36.4085 17.9704 36.4085C27.9111 36.4085 35.9704 28.3493 35.9704 18.4085C36 8.43816 27.9407 0.378906 18 0.378906Z" fill="#E60019"/>
</g>
<defs>
<clipPath id="clip0_691_11587">
<rect width="36" height="36" fill="white" transform="translate(0 0.378906)"/>
</clipPath>
</defs>
</svg>
