<svg width="36" height="37" viewBox="0 0 36 37" fill="none" xmlns="http://www.w3.org/2000/svg">
<rect x="2.25" y="2.93945" width="31.5" height="31.5" rx="6" fill="url(#paint0_radial_691_11581)"/>
<rect x="2.25" y="2.93945" width="31.5" height="31.5" rx="6" fill="url(#paint1_radial_691_11581)"/>
<rect x="2.25" y="2.93945" width="31.5" height="31.5" rx="6" fill="url(#paint2_radial_691_11581)"/>
<path d="M25.875 12.502C25.875 13.4339 25.1195 14.1895 24.1875 14.1895C23.2555 14.1895 22.5 13.4339 22.5 12.502C22.5 11.57 23.2555 10.8145 24.1875 10.8145C25.1195 10.8145 25.875 11.57 25.875 12.502Z" fill="white"/>
<path fill-rule="evenodd" clip-rule="evenodd" d="M18 24.3145C21.1066 24.3145 23.625 21.7961 23.625 18.6895C23.625 15.5829 21.1066 13.0645 18 13.0645C14.8934 13.0645 12.375 15.5829 12.375 18.6895C12.375 21.7961 14.8934 24.3145 18 24.3145ZM18 22.0645C19.864 22.0645 21.375 20.5534 21.375 18.6895C21.375 16.8255 19.864 15.3145 18 15.3145C16.136 15.3145 14.625 16.8255 14.625 18.6895C14.625 20.5534 16.136 22.0645 18 22.0645Z" fill="white"/>
<path fill-rule="evenodd" clip-rule="evenodd" d="M6.75 18.2395C6.75 14.4591 6.75 12.5689 7.48571 11.125C8.13285 9.85492 9.16547 8.8223 10.4356 8.17516C11.8795 7.43945 13.7696 7.43945 17.55 7.43945H18.45C22.2304 7.43945 24.1205 7.43945 25.5644 8.17516C26.8345 8.8223 27.8671 9.85492 28.5143 11.125C29.25 12.5689 29.25 14.4591 29.25 18.2395V19.1395C29.25 22.9198 29.25 24.81 28.5143 26.2539C27.8671 27.524 26.8345 28.5566 25.5644 29.2037C24.1205 29.9395 22.2304 29.9395 18.45 29.9395H17.55C13.7696 29.9395 11.8795 29.9395 10.4356 29.2037C9.16547 28.5566 8.13285 27.524 7.48571 26.2539C6.75 24.81 6.75 22.9198 6.75 19.1395V18.2395ZM17.55 9.68945H18.45C20.3773 9.68945 21.6875 9.6912 22.7002 9.77394C23.6866 9.85454 24.1911 10.0006 24.543 10.1799C25.3897 10.6114 26.0781 11.2998 26.5095 12.1465C26.6888 12.4984 26.8349 13.0029 26.9155 13.9893C26.9983 15.002 27 16.3121 27 18.2395V19.1395C27 21.0668 26.9983 22.3769 26.9155 23.3896C26.8349 24.3761 26.6888 24.8805 26.5095 25.2324C26.0781 26.0791 25.3897 26.7676 24.543 27.199C24.1911 27.3783 23.6866 27.5244 22.7002 27.605C21.6875 27.6877 20.3773 27.6895 18.45 27.6895H17.55C15.6227 27.6895 14.3125 27.6877 13.2998 27.605C12.3134 27.5244 11.8089 27.3783 11.457 27.199C10.6103 26.7676 9.9219 26.0791 9.49047 25.2324C9.31117 24.8805 9.16509 24.3761 9.08449 23.3896C9.00175 22.3769 9 21.0668 9 19.1395V18.2395C9 16.3121 9.00175 15.002 9.08449 13.9893C9.16509 13.0029 9.31117 12.4984 9.49047 12.1465C9.9219 11.2998 10.6103 10.6114 11.457 10.1799C11.8089 10.0006 12.3134 9.85454 13.2998 9.77394C14.3125 9.6912 15.6227 9.68945 17.55 9.68945Z" fill="white"/>
<defs>
<radialGradient id="paint0_radial_691_11581" cx="0" cy="0" r="1" gradientUnits="userSpaceOnUse" gradientTransform="translate(13.5 26.5645) rotate(-55.3758) scale(28.7096)">
<stop stop-color="#B13589"/>
<stop offset="0.79309" stop-color="#C62F94"/>
<stop offset="1" stop-color="#8A3AC8"/>
</radialGradient>
<radialGradient id="paint1_radial_691_11581" cx="0" cy="0" r="1" gradientUnits="userSpaceOnUse" gradientTransform="translate(12.375 35.5645) rotate(-65.1363) scale(25.4185)">
<stop stop-color="#E0E8B7"/>
<stop offset="0.444662" stop-color="#FB8A2E"/>
<stop offset="0.71474" stop-color="#E2425C"/>
<stop offset="1" stop-color="#E2425C" stop-opacity="0"/>
</radialGradient>
<radialGradient id="paint2_radial_691_11581" cx="0" cy="0" r="1" gradientUnits="userSpaceOnUse" gradientTransform="translate(0.562502 4.06445) rotate(-8.1301) scale(43.7522 9.35815)">
<stop offset="0.156701" stop-color="#406ADC"/>
<stop offset="0.467799" stop-color="#6A45BE"/>
<stop offset="1" stop-color="#6A45BE" stop-opacity="0"/>
</radialGradient>
</defs>
</svg>
