<svg width="37" height="36" viewBox="0 0 37 36" fill="none" xmlns="http://www.w3.org/2000/svg">
<path opacity="0.12" d="M20.8815 19.0732C19.8898 19.7674 19.3939 20.1145 18.8545 20.249C18.3781 20.3677 17.8797 20.3677 17.4033 20.249C16.8639 20.1145 16.368 19.7674 15.3763 19.0732L3.12891 10.5C3.12891 8.01472 5.14362 6 7.62891 6H28.6289C31.1142 6 33.1289 8.01472 33.1289 10.5L20.8815 19.0732Z" fill="#0086C9"/>
<path d="M32.3789 27L22.4146 18M13.8432 18L3.87896 27M3.12891 10.5L15.3763 19.0732C16.368 19.7674 16.8639 20.1145 17.4033 20.249C17.8797 20.3677 18.3781 20.3677 18.8545 20.249C19.3939 20.1145 19.8898 19.7674 20.8815 19.0732L33.1289 10.5M10.3289 30H25.9289C28.4491 30 29.7093 30 30.6719 29.5095C31.5186 29.0781 32.207 28.3897 32.6384 27.543C33.1289 26.5804 33.1289 25.3202 33.1289 22.8V13.2C33.1289 10.6798 33.1289 9.41965 32.6384 8.45704C32.207 7.61031 31.5186 6.9219 30.6719 6.49047C29.7093 6 28.4491 6 25.9289 6H10.3289C7.80867 6 6.54855 6 5.58595 6.49047C4.73922 6.9219 4.05081 7.61031 3.61938 8.45704C3.12891 9.41965 3.12891 10.6798 3.12891 13.2V22.8C3.12891 25.3202 3.12891 26.5804 3.61938 27.543C4.05081 28.3897 4.73922 29.0781 5.58595 29.5095C6.54855 30 7.80867 30 10.3289 30Z" stroke="#0086C9" stroke-width="2" stroke-linecap="round" stroke-linejoin="round"/>
</svg>
