<svg width="36" height="37" viewBox="0 0 36 37" fill="none" xmlns="http://www.w3.org/2000/svg">
<path d="M25.7648 13.3333C28.0798 14.9941 30.9159 15.9713 33.9789 15.9713V10.056C33.3992 10.0562 32.821 9.99551 32.2539 9.87493V14.531C29.1911 14.531 26.3554 13.5539 24.0398 11.8932V23.9644C24.0398 30.0031 19.1619 34.898 13.1451 34.898C10.9001 34.898 8.81346 34.2169 7.08008 33.0487C9.05845 35.0788 11.8174 36.3381 14.8698 36.3381C20.8869 36.3381 25.7651 31.4432 25.7651 25.4043V13.3333H25.7648V13.3333ZM27.8928 7.36563C26.7097 6.06847 25.9329 4.39215 25.7648 2.5389V1.77808H24.1301C24.5416 4.13356 25.9451 6.14594 27.8928 7.36563ZM10.8857 28.4148C10.2247 27.545 9.86749 26.481 9.86909 25.387C9.86909 22.6252 12.1002 20.3858 14.8528 20.3858C15.3658 20.3857 15.8757 20.4645 16.3646 20.6202V14.5728C15.7932 14.4942 15.2166 14.4609 14.6403 14.4731V19.1801C14.151 19.0244 13.6409 18.9453 13.1278 18.9458C10.3752 18.9458 8.1442 21.1849 8.1442 23.9471C8.1442 25.9002 9.25938 27.5911 10.8857 28.4148Z" fill="#FF004F"/>
<path d="M24.0394 11.8931C26.3551 13.5538 29.1907 14.5309 32.2535 14.5309V9.8748C30.5439 9.50934 29.0304 8.61274 27.8925 7.36563C25.9446 6.14582 24.5412 4.13343 24.1298 1.77808H19.8359V25.4041C19.8262 28.1584 17.5989 30.3886 14.8522 30.3886C13.2336 30.3886 11.7957 29.6143 10.885 28.4148C9.25879 27.5911 8.1436 25.9001 8.1436 23.9473C8.1436 21.1853 10.3746 18.946 13.1272 18.946C13.6546 18.946 14.1629 19.0284 14.6397 19.1802V14.4732C8.72857 14.5958 3.97461 19.4429 3.97461 25.4042C3.97461 28.38 5.15846 31.0777 7.07985 33.0488C8.81323 34.2169 10.8999 34.8981 13.1449 34.8981C19.1618 34.8981 24.0396 30.003 24.0396 23.9644V11.8931H24.0394Z" fill="black"/>
<path d="M32.2538 9.87484V8.61586C30.7121 8.61821 29.2007 8.18492 27.8927 7.36554C29.0506 8.63773 30.5753 9.51493 32.2538 9.87484ZM24.13 1.77811C24.0908 1.553 24.0606 1.32641 24.0397 1.09896V0.338135H18.111V23.9644C18.1016 26.7183 15.8744 28.9485 13.1275 28.9485C12.321 28.9485 11.5596 28.7564 10.8853 28.415C11.796 29.6143 13.2339 30.3885 14.8525 30.3885C17.5989 30.3885 19.8266 28.1585 19.8362 25.4042V1.77811H24.13ZM14.6402 14.4732V13.133C14.1448 13.065 13.6454 13.0309 13.1453 13.0312C7.12787 13.031 2.25 17.9262 2.25 23.9644C2.25 27.7499 4.16709 31.0861 7.08025 33.0486C5.15886 31.0776 3.97501 28.3798 3.97501 25.4041C3.97501 19.4429 8.72885 14.5958 14.6402 14.4732Z" fill="#00F2EA"/>
</svg>
